<svg width="724" height="900" viewBox=" 724 900" fill="none" xmlns="http://www.w3.org/2000/svg">
<g clip-path="url(#clip0_2_3168)">
<rect width="724" height="900" rx="10" fill="white"/>
<path d="M719 158.214L799.046 82.9158C805.155 77.1497 804.739 67.3813 798.143 62.1579L719 -0.522801V158.214Z" fill="#6060C6" fill-opacity="0.5"/>
<path d="M3.94402 1H713.944C719.467 1 723.944 5.47715 723.944 11V891C723.944 896.523 719.467 901 713.944 901H3.94402V1Z" fill="white"/>
<g clip-path="url(#clip1_2_3168)">
<path d="M891.687 859.473C710.691 846.006 556.458 791.101 365.092 794.904C173.725 798.708 0.79339 840.116 0.79339 840.116L4.31972 779.261C71.5817 750.395 268.491 722.092 453.336 733.796C638.182 745.5 766.198 793.624 895.127 800.103C891.687 859.473 891.687 859.473 891.687 859.473Z" fill="#A1A1E5"/>
</g>
<path opacity="0.44" d="M669.032 69.3761C683.733 69.3761 695.65 58.489 695.65 45.059C695.65 31.6291 683.733 20.742 669.032 20.742C654.331 20.742 642.414 31.6291 642.414 45.059C642.414 58.489 654.331 69.3761 669.032 69.3761Z" stroke="#121293" stroke-width="4" stroke-miterlimit="10"/>
<path opacity="0.44" d="M685.769 253.279C670.931 253.279 658.902 264.618 658.902 278.607C658.902 292.595 670.931 303.934 685.769 303.934C700.607 303.934 712.636 292.595 712.636 278.607C712.636 264.618 700.607 253.279 685.769 253.279Z" stroke="#121293" stroke-opacity="0.5" stroke-width="4" stroke-miterlimit="10"/>
<path d="M679.052 219.836C648.092 219.836 622.994 243.726 622.994 273.197C622.994 302.667 648.092 326.557 679.052 326.557C710.013 326.557 735.111 302.667 735.111 273.197C735.111 243.726 710.013 219.836 679.052 219.836Z" stroke="#3E3EDD" stroke-opacity="0.5" stroke-width="8" stroke-miterlimit="10"/>
<path d="M658.257 252.787C646.486 252.787 636.944 261.87 636.944 273.074C636.944 284.278 646.486 293.361 658.257 293.361C670.027 293.361 679.569 284.278 679.569 273.074C679.569 261.87 670.027 252.787 658.257 252.787Z" fill="#3E3EDD" fill-opacity="0.5"/>
<g clip-path="url(#clip2_2_3168)">
<path d="M2.94409 159.214L82.9899 83.9158C89.0992 78.1497 88.6826 68.3813 82.0874 63.1579L2.94409 0.477199L2.94409 159.214Z" fill="#6060C6" fill-opacity="0.5"/>
</g>
</g>
<defs>
<clipPath id="clip0_2_3168">
<rect width="724" height="900" rx="10" fill="white"/>
</clipPath>
<clipPath id="clip1_2_3168">
<rect width="890.521" height="153.036" fill="white" transform="translate(9.64648 687.336) rotate(3.31639)"/>
</clipPath>
<clipPath id="clip2_2_3168">
<rect width="94" height="174" fill="white" transform="translate(96.9441 170) rotate(-180)"/>
</clipPath>
</defs>
</svg>
