<svg id="Layer_1" data-name="Layer 1" xmlns="http://www.w3.org/2000/svg" xmlns:xlink="http://www.w3.org/1999/xlink" viewBox="753.54 901.52"><defs><style>.cls-1,.cls-5,.cls-6,.cls-7{fill:none;}.cls-2{clip-path:url(#clip-path);}.cls-3{fill:#6060c6;}.cls-3,.cls-8{fill-opacity:0.5;}.cls-4{fill:#fff;}.cls-5,.cls-6{stroke:#121293;stroke-width:4px;opacity:0.44;isolation:isolate;}.cls-5,.cls-6,.cls-7{stroke-miterlimit:10;}.cls-6,.cls-7{stroke-opacity:0.5;}.cls-7{stroke:#3e3edd;stroke-width:8px;}.cls-8{fill:#3e3edd;}.cls-9{clip-path:url(#clip-path-2);}.cls-10{fill:#a1a1e5;}</style><clipPath id="clip-path" transform="translate(0.15 0.52)"><rect class="cls-1" x="0.43" y="-0.26" width="727" height="900"/></clipPath><clipPath id="clip-path-2" transform="translate(0.15 0.52)"><rect class="cls-1" x="-0.15" y="701.67" width="753.54" height="153.04"/></clipPath></defs><g class="cls-2"><path class="cls-3" d="M8,158.21,88.05,82.92a13.7,13.7,0,0,0-.91-20.76L8-.52Z" transform="translate(0.15 0.52)"/><path class="cls-4" d="M1,1H717.9A10.05,10.05,0,0,1,728,11V891a10.05,10.05,0,0,1-10.1,10H1Z" transform="translate(0.15 0.52)"/><path class="cls-5" d="M674.09,69.38c14.7,0,26.62-10.89,26.62-24.32s-11.92-24.32-26.62-24.32-26.62,10.89-26.62,24.32S659.39,69.38,674.09,69.38Z" transform="translate(0.15 0.52)"/><path class="cls-6" d="M690.83,253.28C676,253.28,664,264.62,664,278.61s12,25.32,26.87,25.32,26.86-11.33,26.86-25.32S705.66,253.28,690.83,253.28Z" transform="translate(0.15 0.52)"/><path class="cls-7" d="M684.11,219.84c-31,0-56.06,23.89-56.06,53.36s25.1,53.36,56.06,53.36,56.06-23.89,56.06-53.36S715.07,219.84,684.11,219.84Z" transform="translate(0.15 0.52)"/><path class="cls-8" d="M663.31,252.79c-11.77,0-21.31,9.08-21.31,20.28s9.54,20.29,21.31,20.29,21.31-9.08,21.31-20.29S675.08,252.79,663.31,252.79Z" transform="translate(0.15 0.52)"/><path class="cls-3" d="M1,158.21,81.05,82.92a13.7,13.7,0,0,0-.91-20.76L1-.52Z" transform="translate(0.15 0.52)"/><g class="cls-9"><path class="cls-10" d="M-.15,733.88c153.56,3,286.54,48.86,448,34s305.53-66.21,305.53-66.21v61C698,795.33,533,835,376.31,834S109.08,792.36-.15,793.35Z" transform="translate(0.15 0.52)"/></g></g></svg>